<?xml version="1.0" standalone="no"?>
<!DOCTYPE svg PUBLIC "-//W3C//DTD SVG 20010904//EN"
 "http://www.w3.org/TR/2001/REC-SVG-20010904/DTD/svg10.dtd">
<svg version="1.0" xmlns="http://www.w3.org/2000/svg"
 width="300.000000pt" height="265.000000pt" viewBox="0 0 300.000000 265.000000"
 preserveAspectRatio="xMidYMid meet">
<metadata>
Created by potrace 1.10, written by Peter Selinger 2001-2011
</metadata>
<g transform="translate(0.000000,265.000000) scale(0.100000,-0.100000)"
fill="#000000" stroke="none">
<path d="M1380 2513 c-41 -84 -47 -132 -25 -228 21 -95 41 -89 47 13 3 51 10
77 31 110 15 23 32 40 37 37 17 -11 11 -117 -9 -161 -12 -26 -45 -63 -96 -104
-123 -102 -159 -170 -157 -295 1 -55 7 -81 29 -124 95 -185 389 -184 485 3 40
77 25 153 -49 243 -67 83 -75 141 -25 196 17 20 17 20 -12 1 -40 -25 -86 -92
-86 -123 0 -25 -3 -26 -40 -23 -36 4 -41 7 -51 41 -11 36 -9 41 23 83 83 108
74 237 -25 360 -17 21 -33 38 -37 38 -4 0 -22 -30 -40 -67z m42 -57 c-31 -37
-41 -23 -17 24 13 26 19 29 31 20 12 -11 10 -17 -14 -44z m-22 -433 c-17 -14
-37 -38 -45 -54 -22 -41 -19 -117 5 -157 22 -36 75 -72 106 -72 19 0 17 5 -17
39 -33 33 -39 45 -39 81 0 52 25 95 66 115 49 23 82 19 116 -15 28 -28 30 -35
26 -81 -3 -30 -14 -62 -27 -80 -12 -16 -17 -29 -12 -29 16 0 62 62 68 91 11
54 25 31 21 -34 -6 -106 -58 -156 -173 -164 -50 -4 -68 -1 -105 19 -65 35
-105 103 -104 177 0 68 35 149 90 211 l38 42 9 -31 c7 -28 4 -35 -23 -58z
m-82 35 c-13 -18 -30 -46 -38 -61 -17 -34 -25 -22 -11 16 10 26 63 89 69 82 2
-2 -7 -19 -20 -37z m297 -35 c13 -16 25 -34 25 -40 0 -7 4 -13 9 -13 5 0 17
-14 25 -32 20 -38 20 -39 1 -32 -8 4 -15 13 -15 20 0 8 -20 35 -45 60 -25 24
-45 49 -45 54 0 18 21 10 45 -17z"/>
<path d="M1471 1946 c-10 -12 -5 -41 20 -138 18 -68 33 -124 34 -126 5 -7 35
11 35 22 0 24 -63 256 -70 256 -4 0 -13 -6 -19 -14z"/>
<path d="M1635 2434 c5 -10 10 -39 13 -64 3 -42 0 -50 -49 -110 -52 -66 -79
-115 -79 -147 0 -10 8 -2 18 18 10 19 39 54 66 79 77 71 94 125 60 196 -17 36
-44 62 -29 28z"/>
<path d="M1246 2363 c9 -44 0 -73 -36 -118 -34 -42 -38 -74 -14 -111 12 -17
15 -38 11 -72 l-5 -47 19 35 c23 43 24 79 3 108 -8 12 -14 32 -12 45 2 18 8
12 30 -31 24 -48 28 -51 37 -33 9 15 7 31 -5 63 -9 24 -15 52 -13 63 6 53 2
106 -9 117 -10 10 -11 6 -6 -19z"/>
<path d="M1201 1707 c-1 -41 17 -64 82 -104 50 -30 36 -3 -19 36 -27 20 -46
43 -50 59 -10 47 -12 48 -13 9z"/>
<path d="M1736 1708 c4 -23 3 -29 -4 -19 -6 8 -17 11 -26 8 -13 -5 -15 -11 -6
-26 5 -11 10 -33 10 -50 0 -18 9 -40 20 -51 28 -28 48 -25 22 3 -27 29 -27 33
-2 90 21 46 18 77 -6 77 -10 0 -12 -9 -8 -32z"/>
<path d="M1244 1602 c12 -14 17 -30 14 -47 l-5 -26 24 23 c23 21 23 23 6 36
-10 7 -27 18 -38 24 -20 11 -20 11 -1 -10z"/>
<path d="M1555 1614 c-8 -3 -8 -23 -1 -62 12 -75 2 -123 -33 -161 -23 -25 -37
-31 -71 -31 -22 0 -54 7 -70 15 -31 16 -40 35 -17 35 23 0 57 45 57 74 0 36
-41 76 -78 76 -34 0 -78 -37 -87 -73 -11 -41 12 -103 50 -136 77 -67 193 -63
265 9 50 50 58 91 36 187 -17 68 -24 78 -51 67z m-191 -110 c22 -21 20 -29
-14 -66 -29 -32 -31 -32 -45 -14 -19 25 -19 46 1 74 18 26 37 28 58 6z"/>
<path d="M135 825 l0 -295 48 0 49 0 -4 210 c-1 116 -1 210 2 210 3 0 11 -10
19 -22 8 -13 80 -107 160 -210 136 -175 148 -188 179 -188 l32 0 0 295 0 295
-46 0 -45 0 3 -210 c3 -183 -1 -237 -14 -200 -1 5 -73 100 -158 210 -149 192
-156 200 -190 200 l-35 0 0 -295z m128 155 l18 -30 -27 12 c-24 11 -29 10 -50
-15 -13 -15 -26 -27 -29 -27 -7 0 -4 118 3 138 6 16 58 -32 85 -78z m317 -315
c0 -48 -4 -75 -11 -75 -12 0 -41 33 -73 83 l-20 30 23 -12 c18 -10 27 -9 47 4
13 8 24 22 24 30 0 8 2 15 5 15 3 0 5 -34 5 -75z"/>
<path d="M1215 825 l0 -295 48 0 47 0 -6 43 -5 42 17 -26 c27 -41 66 -59 128
-59 125 0 216 94 216 222 0 67 -26 124 -75 166 -46 41 -77 53 -135 53 -57 1
-94 -13 -126 -48 l-25 -27 7 112 7 112 -49 0 -49 0 0 -295z m73 72 c15 -16 14
-21 -3 -53 -21 -39 -26 -38 -31 8 -4 39 7 100 14 78 2 -8 12 -23 20 -33z m223
-24 c75 -44 85 -164 20 -227 -77 -74 -207 -35 -227 69 -25 133 94 223 207 158z
m-217 -257 c-8 -22 -32 -27 -38 -8 -2 9 -3 28 -1 42 2 14 4 32 5 40 0 8 10 -2
20 -22 11 -20 17 -43 14 -52z"/>
<path d="M2230 824 l0 -295 45 3 45 3 3 293 2 292 -47 0 -48 0 0 -296z"/>
<path d="M889 970 c-60 -10 -126 -56 -156 -108 -23 -39 -28 -58 -27 -114 0
-90 36 -150 113 -190 66 -34 162 -38 226 -9 60 27 70 43 42 70 l-24 21 -48
-21 c-54 -24 -120 -21 -162 7 -23 14 -63 70 -63 87 0 4 79 7 176 7 l177 0 -6
55 c-13 131 -122 216 -248 195z m91 -86 c37 -15 80 -65 80 -93 0 -8 -41 -11
-135 -11 -74 0 -135 4 -135 9 0 21 49 78 80 93 43 22 59 22 110 2z m-205 -154
c-10 -11 -22 -17 -26 -14 -10 6 -12 45 -3 68 5 13 10 12 26 -9 19 -25 19 -27
3 -45z"/>
<path d="M1900 968 c-65 -11 -120 -53 -153 -118 -24 -47 -28 -64 -24 -111 5
-58 32 -122 64 -151 62 -56 198 -76 278 -39 61 27 70 43 40 71 l-24 22 -46
-22 c-52 -25 -119 -23 -162 6 -23 14 -63 70 -63 87 0 4 79 7 175 7 l175 0 0
33 c0 74 -52 166 -111 198 -33 17 -103 25 -149 17z m106 -88 c36 -18 74 -66
74 -94 0 -3 -61 -6 -135 -6 -74 0 -135 4 -135 9 0 21 49 78 80 93 45 23 64 23
116 -2z m-209 -111 c12 -14 11 -19 -6 -40 -18 -22 -20 -22 -26 -6 -4 9 -4 34
0 55 4 20 10 30 13 22 2 -8 11 -22 19 -31z"/>
<path d="M2412 801 c3 -154 5 -172 24 -198 34 -46 82 -73 130 -73 78 0 126 34
166 121 13 26 26 48 31 49 4 0 7 -20 7 -45 0 -44 -11 -58 -26 -33 -10 16 -22
-16 -23 -59 -1 -32 0 -33 44 -33 l45 0 0 220 0 220 -45 0 -45 0 0 -140 0 -139
-38 -41 c-35 -36 -44 -40 -86 -40 -36 0 -52 5 -71 25 -24 24 -25 28 -25 180
l0 155 -46 0 -45 0 3 -169z"/>
<path d="M148 310 c-17 -40 -13 -51 10 -28 10 10 17 10 32 0 11 -7 20 -10 20
-8 0 12 -32 76 -38 76 -4 0 -15 -18 -24 -40z"/>
<path d="M290 308 c1 -38 2 -41 14 -25 12 15 14 16 20 2 3 -8 10 -15 16 -15 7
0 8 5 3 13 -4 6 -8 23 -8 37 0 18 -6 26 -22 28 -21 3 -23 -1 -23 -40z"/>
<path d="M420 340 c0 -5 5 -10 10 -10 6 0 10 -13 10 -30 0 -16 5 -30 10 -30 6
0 10 14 10 30 0 17 5 30 10 30 6 0 10 5 10 10 0 6 -13 10 -30 10 -16 0 -30 -4
-30 -10z"/>
<path d="M663 335 c-3 -9 3 -23 13 -31 18 -15 18 -15 1 -10 -12 4 -17 2 -15
-6 7 -19 42 -16 46 3 1 8 -7 21 -20 27 l-23 11 23 0 c13 1 20 5 17 11 -9 15
-35 12 -42 -5z"/>
<path d="M790 309 c0 -22 4 -38 9 -35 12 8 12 76 0 76 -5 0 -9 -18 -9 -41z"/>
<path d="M880 310 c0 -22 5 -40 10 -40 6 0 10 10 10 23 l1 22 18 -22 c26 -32
31 -29 31 17 0 41 -20 58 -21 18 l0 -23 -16 23 c-23 33 -33 27 -33 -18z"/>
<path d="M1042 338 c-29 -29 3 -82 36 -61 21 13 30 47 10 40 -7 -2 -12 -10
-10 -16 1 -6 -5 -11 -13 -11 -8 0 -15 9 -15 20 0 13 7 20 20 20 11 0 20 5 20
10 0 14 -33 13 -48 -2z"/>
<path d="M1183 335 c-3 -9 3 -23 13 -31 18 -15 18 -15 1 -10 -12 4 -17 2 -15
-6 7 -20 37 -21 45 -2 4 11 -1 22 -12 30 -17 13 -17 14 -1 14 9 0 14 5 11 10
-9 15 -35 12 -42 -5z"/>
<path d="M1422 338 c-28 -28 -1 -75 38 -63 11 3 20 15 20 25 0 13 -5 17 -15
14 -8 -4 -12 -10 -9 -15 3 -5 -2 -9 -10 -9 -9 0 -16 9 -16 20 0 13 7 20 20 20
11 0 20 5 20 10 0 14 -33 13 -48 -2z"/>
<path d="M1570 335 c-15 -18 -10 -45 13 -59 34 -22 73 27 47 59 -16 19 -44 19
-60 0z m48 -22 c-5 -26 -38 -29 -38 -4 0 15 6 21 21 21 14 0 19 -5 17 -17z"/>
<path d="M1720 310 c0 -37 2 -41 21 -38 30 4 47 33 33 56 -6 9 -21 18 -33 20
-19 3 -21 -1 -21 -38z m40 0 c0 -11 -7 -20 -15 -20 -8 0 -15 9 -15 20 0 11 7
20 15 20 8 0 15 -9 15 -20z"/>
<path d="M1953 335 c-3 -9 3 -23 13 -31 18 -15 18 -15 1 -10 -12 4 -17 2 -15
-6 7 -19 42 -16 46 3 1 8 -7 21 -20 27 l-23 11 23 0 c13 1 20 5 17 11 -9 15
-35 12 -42 -5z"/>
<path d="M2192 338 c-29 -29 3 -82 36 -61 21 13 30 47 10 40 -7 -2 -12 -10
-10 -16 1 -6 -5 -11 -13 -11 -8 0 -15 9 -15 20 0 13 7 20 20 20 11 0 20 5 20
10 0 14 -33 13 -48 -2z"/>
<path d="M2330 310 c0 -36 3 -40 25 -40 14 0 25 5 25 10 0 6 -7 10 -15 10 -10
0 -15 10 -15 30 0 17 -4 30 -10 30 -5 0 -10 -18 -10 -40z"/>
<path d="M2460 335 c-15 -18 -10 -45 13 -59 34 -22 73 27 47 59 -16 19 -44 19
-60 0z m50 -26 c0 -25 -33 -22 -38 4 -2 12 3 17 17 17 15 0 21 -6 21 -21z"/>
<path d="M2610 308 c1 -38 2 -41 14 -25 12 15 14 16 20 2 3 -8 10 -15 16 -15
6 0 8 5 4 12 -5 7 -8 24 -8 38 -1 18 -7 26 -23 28 -21 3 -23 -1 -23 -40z"/>
<path d="M2754 328 c9 -12 16 -30 16 -40 0 -10 5 -18 10 -18 6 0 10 10 10 23
0 13 5 28 12 35 6 6 9 15 5 19 -4 3 -13 -2 -20 -12 -13 -16 -14 -16 -20 -1 -4
9 -11 16 -17 16 -7 0 -5 -9 4 -22z"/>
</g>
</svg>
